<svg width="279" height="116" fill="none" xmlns="http://www.w3.org/2000/svg"><path fill-rule="evenodd" clip-rule="evenodd" d="M249.952.748l4.732 16.724L174.5 54.928l-16.229-5.305L249.952.748z" fill="#A86A37"/><path opacity=".2" fill-rule="evenodd" clip-rule="evenodd" d="M278.571 102.932L159.184 51.118l-65.853 43.57L.55 55.853.114 75.826l93.175 39.698v.021l.042-.011.01.011v-.011l164.424-5.491 20.806-7.111z" fill="#7B2620"/><path fill-rule="evenodd" clip-rule="evenodd" d="M90.197 5.772l78.336-.82L250.076.384l-91.619 49.177L.405 53.744 74.03 22.912l16.167-17.14z" fill="#A86A37"/><path fill-rule="evenodd" clip-rule="evenodd" d="M158.478 71.237L.872 73.656l-.478-19.89L158.5 48.833l-.021 22.403z" fill="#8E5326"/><path fill-rule="evenodd" clip-rule="evenodd" d="M256.78 107.54l-98.665-39.688V49.685l99.64 38.245-.975 19.61z" fill="#A46633"/><path fill-rule="evenodd" clip-rule="evenodd" d="M158.115 61.458v6.394l54.998 24.397a8.209 8.209 0 001.723-2.845c.695-2.076.467-11.96-1.609-18.23l-14.839-6.145a1246.389 1246.389 0 00-40.273-3.571z" fill="#D18C27" opacity=".2"/><path fill-rule="evenodd" clip-rule="evenodd" d="M158.488 56.194a1036.873 1036.873 0 00-29.771-1.599c-14.217-1.39-60.052-1.557-73.574-1.879l-1.598.229c-19.249 2.522-24.572 17.285-23.94 20.077.1.411.232.814.395 1.204l128.488-1.619V56.194z" fill="#D18C27" opacity=".2"/><path d="M202.321 68.766c-.342-.249-40.886-4.9-79.27-6.353-38.291-3.748-81.17-1.807-81.522-1.568-3.487 2.357-2.387 8.586-1.775 11.254 1.297 5.657 9.454 12.052 26.088 16.994 14.621 4.588 34.483 7.92 55.351 9.343 20.869 1.422 40.896.841 55.839-1.744 16.967-2.647 26.607-7.173 28.402-12.624.841-2.616 1.069-12.219-3.113-15.302z" fill="#E58848"/><path d="M92.231 50.536h.664c1.65-.093 2.719-.114 4.452-.176 1.733-.062 3.58-.53 5.323-.56h.799c1.038 0 2.024-.115 3.041-.156h1.38c1.795 0 3.954.581 5.759.623a311.3 311.3 0 015.365.176c1.816.073 3.591 0 5.407.083 1.816.083 3.663.156 5.479.301 1.816.145 3.632.28 5.437.457 1.806.176 3.456.498 5.189.716 1.733.218 3.393.498 5.126.737 1.733.239 4.275 0 5.967.27 1.691.27 3.113.696 4.794 1.038 1.681.343 3.269.634 4.836.966 1.567.332 2.293.934 3.787 1.277 1.495.342 3.923.446 5.334.82 1.411.373 1.972.955 3.29 1.35 1.318.394 3.445.643 4.659 1.038 1.214.394 2.075.903 3.196 1.328 1.121.426 1.152.987 2.159 1.443 1.006.457 3.756.717 4.638 1.173.882.457 1.826.935 2.594 1.402.768.467-.228 1.038.415 1.495.644.457 1.277.944 1.785 1.412.509.467 1.474.955 1.847 1.422.26.447.462.925.602 1.422.316.447.581.927.789 1.433.186.452.311.927.373 1.412 0 .467-1.66.81-1.826 1.266-.166.457.602.976.291 1.422-.396.462-.83.889-1.297 1.277-.447.426-.519.903-1.038 1.319-.519.415-1.775.716-2.47 1.11-.695.395.135 1.039-.685 1.423-.82.384-2.885.519-3.829.862-.944.342-1.038.903-2.075 1.224-1.038.322-3.964.177-5.189.478-1.224.301-.872 1.038-2.137 1.256-1.266.218-2.356.623-3.726.862-.433.064-.87.103-1.307.114-.914 0-1.982 0-2.906.052-.415 0-.809 0-1.141.093-1.453.198-2.449.592-3.985.769-.291 0-.612 0-.944.062h-4.4c-1.588.135-2.377.747-4.058.84h-.166c-1.65.063-4.005-.331-5.676-.27-1.671.063-2.823.562-4.462.624h-.197c-1.764 0-3.985-.426-5.77-.426h-.799c-1.121.052-2.19.177-3.3.218h-1.1c-1.826 0-3.642.052-5.469 0-1.826-.052-3.704-.623-5.52-.737-1.816-.114-3.663-.083-5.479-.228-1.816-.146-3.518-.468-5.313-.644s-3.56-.353-5.334-.56c-1.774-.208-4.151 0-5.884-.198-1.733-.197-2.999-.82-4.69-1.09-1.692-.27-2.74-.83-4.369-1.131-1.63-.301-4.254-.187-5.822-.52-1.566-.332-2.386-.903-3.88-1.256-1.495-.353-2.792-.737-4.203-1.11-1.411-.374-2.231-.852-3.55-1.246-1.317-.395-3.725-.571-4.949-.987-1.224-.415-2.719-.788-3.84-1.224-1.12-.436-.881-1.039-1.888-1.475-1.007-.436-2.169-.85-3.05-1.308-.883-.456-2.076-.872-2.865-1.35a21.476 21.476 0 01-1.847-1.4c-.644-.478-.343-.956-.851-1.433-.508-.478-2.926-.935-3.3-1.402-.373-.467-.083-.955-.322-1.433-.238-.477.581-.903.478-1.37-.104-.467-.737-.965-.706-1.422.031-.457.54-.893.706-1.34.166-.446 0-.923.342-1.37.343-.446 1.453-.778 1.9-1.204.585-.432 1.195-.83 1.826-1.194.58-.404.383-.913 1.09-1.297.705-.384 2.168-.634 2.988-1.039.82-.404.508-.944 1.453-1.287.944-.342 2.075-.664 3.113-.986 1.037-.322 2.48-.54 3.642-.84 1.162-.302 2.449-.54 3.715-.8s2.023-.696 3.393-.935c1.37-.238 3-.363 4.452-.57.415 0 .892-.084 1.4-.104.831 0 1.744 0 2.574-.063.426 0 .82 0 1.173-.083 1.525-.166 2.47-.581 4.089-.716l1.13-.073c1.038 0 2.263 0 3.363-.072l.01.02zm2.594-2.014a192.925 192.925 0 00-26.73 2.72c-7.452 1.37-13.408 3.115-17.704 5.285-4.296 2.17-6.704 4.526-7.17 7.1-.467 2.575 1.151 5.409 4.856 8.16 3.705 2.751 9.267 5.346 16.52 7.713a178.06 178.06 0 0024.635 5.866 287.702 287.702 0 0029.471 3.457c10.334.705 20.697.864 31.048.477a189.61 189.61 0 0026.731-2.72c7.451-1.37 13.407-3.114 17.703-5.284 4.297-2.17 6.714-4.516 7.171-7.09.457-2.575-1.141-5.409-4.856-8.17-6.081-4.516-11.82-6.229-16.521-7.703a178.295 178.295 0 00-24.624-5.866 288.328 288.328 0 00-29.482-3.457 297.45 297.45 0 00-31.048-.488z" fill="#F78E48" stroke="#F78E48" stroke-width=".52"/><path d="M149.741 89.3a294.57 294.57 0 01-31.048-.477 287.687 287.687 0 01-29.471-3.457A178.073 178.073 0 0164.587 79.5c-7.264-2.367-12.816-4.962-16.52-7.713-3.705-2.751-5.345-5.502-4.857-8.16.488-2.657 2.885-4.962 7.17-7.1 4.286-2.14 10.253-3.914 17.704-5.285a192.926 192.926 0 0126.731-2.72 297.433 297.433 0 0131.048.488c9.88.646 19.72 1.8 29.481 3.457a178.246 178.246 0 0124.625 5.866c7.264 2.356 12.816 4.952 16.52 7.703 3.705 2.75 5.344 5.502 4.857 8.17-.488 2.668-2.875 4.952-7.171 7.09-4.296 2.139-10.252 3.914-17.703 5.284a189.611 189.611 0 01-26.731 2.72zM93.767 47.775c-42.546 1.65-64.338 12.458-48.533 24.157 15.804 11.7 62.998 19.829 105.555 18.178 42.556-1.65 64.337-12.457 48.543-24.147-15.793-11.69-63.009-19.839-105.565-18.188z" fill="#E58848"/><path d="M98.82 50.91c-.207 0-.674.114-1.037.177-1.079.221-2.17.37-3.269.446h-4.888c-.259 0-.747.135-1.14.218-.886.217-1.783.377-2.689.478a24.26 24.26 0 01-1.971.135h-2.958c-.695.103-1.38.176-2.075.26-.695.082-1.577.176-2.169.28a9.89 9.89 0 00-1.204.332c-.645.222-1.304.406-1.971.55l-.768.156c-.976.207-1.91.394-2.74.602-.591.145-1.183.27-1.764.394-.58.125-1.266.26-1.702.395l-.384.114c-.913.27-1.774.53-2.521.81a.913.913 0 00-.26.321 1.993 1.993 0 01-1.037.914c-.585.245-1.19.443-1.806.592-.355.085-.702.2-1.038.342a.924.924 0 00-.342.447c-.14.318-.363.594-.643.8-.27.186-.571.362-.862.529a5.525 5.525 0 00-.892.591 4.743 4.743 0 01-1.131.706 2.48 2.48 0 00-.695.426 1.256 1.256 0 00-.177.654 2.518 2.518 0 01-.124.643 3.2 3.2 0 01-.374.623 1.59 1.59 0 00-.322.634c.04.214.142.412.29.57.189.23.33.495.416.78a1.142 1.142 0 01-.311.871c-.125.156-.25.332-.198.426.105.239.154.497.146.758-.017.18.012.362.083.53l.685.228c.923.234 1.8.624 2.594 1.152.25.237.424.545.498.882.027.18.115.345.249.468.26.197.488.384.706.57.328.28.675.536 1.037.769.416.231.845.436 1.287.612.478.208.976.415 1.443.654.466.239.965.436 1.556.675.436.176.903.363 1.339.56a3.487 3.487 0 011.453 1.039c.087.125.192.237.31.332a26.12 26.12 0 001.754.56 42.87 42.87 0 011.775.55l1.1.188a28.93 28.93 0 013.705.747c.83.25 1.463.509 2.023.727.56.218.903.353 1.297.457l1.37.373c.892.25 1.733.478 2.594.685.925.217 1.831.508 2.709.872.228.084.54.208.768.28l.923.053c1.603.047 3.201.2 4.784.456a23.04 23.04 0 013.113.8c.322.093.8.249 1.038.29 1.128.188 2.244.445 3.341.769l.893.249h.933a37.833 37.833 0 014.826.197c1.629.187 3.237.353 5.022.53 1.09.103 2.076.238 2.937.363.861.124 1.515.207 2.075.249.561.042 1.37.073 2.2.094.831.02 1.889 0 2.979.114a36.27 36.27 0 014.264.55l1.038.176h5.251l1.193-.072a47.861 47.861 0 012.076-.135h1.38a39.77 39.77 0 014.462.3l1.038.105.768.155a20.74 20.74 0 013.694-.467 37.65 37.65 0 014.701.177l.861.072.529-.166a15.23 15.23 0 013.269-.633c.384 0 .789-.062 1.245-.073h3.84a13.44 13.44 0 001.349-.27 23.22 23.22 0 012.386-.467 22.846 22.846 0 012.2-.176h2.979c.539-.094 1.037-.24 1.67-.384.633-.146 1.038-.26 1.578-.385.097-.074.187-.157.269-.249a3.116 3.116 0 011.837-1.038 22.996 22.996 0 014.151-.436h.872c.148-.09.287-.194.415-.311a4.289 4.289 0 011.38-.81 16.586 16.586 0 012.625-.592c.322 0 .799-.135 1.038-.187a.679.679 0 000-.29.953.953 0 01.602-1.09c.438-.23.893-.427 1.359-.592a6.15 6.15 0 001.038-.457c.201-.164.37-.365.498-.592.141-.238.312-.458.508-.654l.436-.404a4.74 4.74 0 00.789-.8c.062-.083 0-.27-.135-.436a1.096 1.096 0 01-.197-.913c.156-.395.789-.696 1.297-.924.178-.076.349-.17.508-.28a2.066 2.066 0 00-.176-.758 3.258 3.258 0 01-.176-.572 2.73 2.73 0 00-.405-.757 6.674 6.674 0 01-.363-.582 4.162 4.162 0 01-.218-.602 2.208 2.208 0 00-.332-.747 4.027 4.027 0 00-.779-.592 8.875 8.875 0 01-1.037-.747c-.468-.42-.96-.812-1.474-1.173l-.218-.156a.915.915 0 01-.415-1.173 1.011 1.011 0 000-.291 38.947 38.947 0 00-2.137-1.163l-.115-.052-.933-.197a19.042 19.042 0 01-3.684-.976 5.298 5.298 0 01-1.484-.976 2.09 2.09 0 00-.509-.384 32.496 32.496 0 01-1.504-.654 21.499 21.499 0 00-1.484-.612 21.618 21.618 0 00-1.349-.28c-.924-.187-2.076-.405-3.113-.706a12.303 12.303 0 01-2.231-.914c-.239-.114-.592-.29-.789-.363l-1.183-.146a36.346 36.346 0 01-3.954-.623 16.09 16.09 0 01-2.76-.924c-.26-.103-.633-.259-.82-.31a201.924 201.924 0 00-4.524-.904 53.54 53.54 0 01-2.584-.55 49.82 49.82 0 00-1.64-.353h-.975c-1.672.03-3.343-.06-5.002-.27l-2.158-.312a88.705 88.705 0 00-2.688-.384 95.455 95.455 0 01-2.719-.384 43.619 43.619 0 00-2.21-.3c-1.422-.136-2.895-.25-4.452-.375l-.685-.062a87.719 87.719 0 00-2.76-.145l-2.407-.125h-5.064c-1.931-.083-3.497-.124-5.064-.166a35.333 35.333 0 01-4.763-.478l-.966-.145h-.539l-1.308.062-1.733.083h-2.283c-1.297 0-2.542 0-3.704.084l.02-.146z" fill="url(#paint0_linear_228_15272)"/><path d="M80.028 62.444a3.713 3.713 0 01-1.879-.239c-.28-.197.104-.404.862-.467a3.806 3.806 0 011.868.239c.28.197-.104.405-.851.467zm-6.476-1.671a4.511 4.511 0 01-2.241-.291c-.343-.239.114-.488 1.038-.56.76-.1 1.532 0 2.241.29.343.228-.124.478-1.038.56zm.187-2.139c-4.213.353-7.336-.519-8.302.498-.082.073-.165 0-.197.187-.3 1.298 0 2.907.851 3.478 2.522 1.744 10.035 2.71 16.79 2.149 5.708-.467 9.039-1.869 8.416-3.343-.114-.27.145-.893-.249-1.163-2.522-1.743-10.533-2.356-17.288-1.806h-.02z" fill="#952500"/><path d="M93.622 51.574h.944a24.65 24.65 0 003.269-.446c.311-.062.778-.156 1.037-.177 1.163 0 2.408-.062 3.705-.083h2.283l1.733-.083 1.307-.062h.54l.965.145c1.575.267 3.166.426 4.763.478 1.567 0 3.113.083 5.064.166 1.183.052 2.231 0 3.113 0h1.951l2.408.124c1.037 0 1.93.084 2.76.146l.685.062c1.556.125 3.03.239 4.452.374.633.062 1.4.176 2.21.301a95.7 95.7 0 002.719.384c.996.125 1.743.239 2.687.384l2.159.312c1.658.21 3.33.3 5.001.27h.976c.488.093 1.038.218 1.639.352a53.8 53.8 0 002.584.55c1.297.24 2.729.53 4.525.904.186.052.56.208.819.311.891.391 1.815.7 2.761.924a36.29 36.29 0 003.953.623l1.183.145c.198.073.55.25.789.364a12.23 12.23 0 002.231.913c1.038.301 2.179.52 3.113.706.467.083 1.173.229 1.349.28a17.2 17.2 0 011.484.613c.509.228.944.426 1.505.654.188.101.36.23.508.384.437.407.938.737 1.484.976 1.192.448 2.427.775 3.684.976l.934.197.114.052c.747.384 1.515.79 2.138 1.163.013.096.013.194 0 .29a.913.913 0 00.415 1.174l.218.155c.514.362 1.006.754 1.473 1.173.328.274.675.524 1.038.748.283.165.544.363.778.592.157.226.269.48.332.747.058.206.131.407.218.602.112.2.233.394.364.582.174.23.31.485.404.757.042.196.101.387.177.571.106.24.165.497.176.758-.16.11-.33.204-.508.28-.509.229-1.142.53-1.298.924a1.083 1.083 0 00.198.914c.093.166.197.353.135.436a4.79 4.79 0 01-.789.8l-.436.404a3.297 3.297 0 00-.508.654 2.081 2.081 0 01-.499.592 6.213 6.213 0 01-1.037.457c-.467.165-.921.363-1.36.591a.958.958 0 00-.602 1.09.648.648 0 010 .291c-.197 0-.674.135-1.037.187a16.61 16.61 0 00-2.626.592 4.31 4.31 0 00-1.38.81 2.516 2.516 0 01-.415.311h-.872c-1.393.02-2.783.165-4.15.436a3.112 3.112 0 00-1.837 1.038 1.937 1.937 0 01-.27.25c-.571.124-1.038.259-1.577.383-.54.125-1.131.291-1.671.385h-3.02c-.861 0-1.577.093-2.2.176a23.22 23.22 0 00-2.386.467c-.445.113-.895.203-1.349.27h-3.84c-.456 0-.861 0-1.245.073a15.261 15.261 0 00-3.269.633l-.529.166-.861-.073a37.784 37.784 0 00-4.701-.176 20.72 20.72 0 00-3.725.571l-.706.124-1.038-.103a39.731 39.731 0 00-4.462-.301h-1.38c-.789 0-1.494.083-2.075.135l-1.194.072h-5.251l-1.037-.176a36.335 36.335 0 00-4.265-.55 86.21 86.21 0 00-2.978-.115c-.903-.02-1.609 0-2.2-.093-.592-.094-1.308-.145-2.076-.25-.768-.103-1.847-.259-2.937-.362a319.457 319.457 0 01-5.022-.53 37.799 37.799 0 00-4.825-.197h-.924l-.892-.25a28.021 28.021 0 00-3.342-.768c-.207 0-.685-.197-1.037-.29a23.027 23.027 0 00-3.114-.8 36.775 36.775 0 00-4.783-.456l-.924-.052c-.228-.073-.54-.198-.768-.28a17.437 17.437 0 00-2.708-.873 74.625 74.625 0 01-2.595-.685l-1.37-.374c-.394-.103-.83-.28-1.296-.456-.467-.177-1.194-.478-2.024-.727a28.912 28.912 0 00-3.704-.748l-1.1-.186c-.592-.198-1.194-.374-1.775-.55-.581-.177-1.307-.395-1.754-.561a1.596 1.596 0 01-.31-.332 3.487 3.487 0 00-1.454-1.038c-.436-.198-.903-.385-1.338-.561-.592-.239-1.142-.457-1.557-.675-.415-.218-.965-.446-1.442-.654-.442-.176-.872-.38-1.287-.612a9.81 9.81 0 01-1.038-.769 15.227 15.227 0 00-.705-.57.789.789 0 01-.25-.468 1.724 1.724 0 00-.498-.882 8.447 8.447 0 00-2.594-1.153l-.685-.228a1.1 1.1 0 01-.083-.53c.009-.26-.04-.519-.145-.757 0-.094.073-.27.197-.426a1.143 1.143 0 00.311-.872 2.265 2.265 0 00-.415-.779 1.142 1.142 0 01-.29-.57 1.59 1.59 0 01.322-.634c.147-.193.273-.401.373-.623.07-.208.111-.424.125-.643-.002-.23.059-.456.176-.654a2.48 2.48 0 01.695-.426c.409-.18.79-.418 1.131-.706.278-.226.577-.424.893-.592.29-.166.591-.342.861-.529.281-.205.503-.481.644-.8a.925.925 0 01.342-.446 6.657 6.657 0 011.038-.342c.616-.149 1.22-.347 1.805-.592a1.993 1.993 0 001.038-.914.915.915 0 01.26-.322c.746-.28 1.608-.54 2.521-.81l.384-.113c.436-.135 1.038-.26 1.702-.395a42.752 42.752 0 001.764-.394c.83-.208 1.764-.395 2.74-.602l.767-.156a17.107 17.107 0 001.972-.55c.394-.136.796-.246 1.204-.333.591-.103 1.36-.187 2.168-.28.81-.093 1.35-.156 2.076-.26h2.957c.747 0 1.401-.072 1.972-.134.905-.101 1.803-.26 2.688-.478.394-.083.882-.197 1.141-.218h3.943l-.02-.239zm3.798-1.702c-1.733.062-2.844.53-4.494.623h-.664c-1.1 0-2.272 0-3.362.072l-1.131.073c-1.619.135-2.563.55-4.089.716-.352 0-.747.063-1.172.083-.83 0-1.743 0-2.574.063-.508 0-1.037.051-1.4.103-1.453.208-3.114.343-4.452.571-1.339.229-2.128.665-3.394.935s-2.542.508-3.715.799c-1.172.29-2.594.52-3.642.84-1.048.323-2.138.634-3.113.987-.976.353-.623.924-1.453 1.288-.83.363-2.283.612-2.988 1.038-.706.425-.509.892-1.09 1.297-.63.363-1.24.762-1.826 1.194-.447.426-1.588.768-1.9 1.204-.31.436-.165.914-.342 1.37-.176.458-.664.873-.706 1.34-.041.467.613.945.706 1.422.094.478-.716.893-.477 1.37.238.478 0 .956.322 1.433.321.478 2.801.924 3.3 1.402.497.477.207.955.85 1.432.59.5 1.207.968 1.848 1.402.767.477 1.992.892 2.863 1.35.872.456 2.076.871 3.051 1.307.976.436.789 1.038 1.889 1.475 1.1.435 2.625.81 3.84 1.224 1.214.416 3.632.592 4.95.987 1.317.394 2.147.872 3.548 1.245 1.401.374 2.719.758 4.203 1.111 1.484.353 2.314.935 3.881 1.256 1.567.322 4.15.218 5.822.52 1.67.3 2.687.861 4.368 1.131 1.681.27 2.947.851 4.69 1.09 1.744.239 4.151 0 5.884.197 1.733.198 3.518.385 5.334.56 1.816.177 3.487.5 5.313.645 1.827.145 3.643.114 5.479.228 1.837.114 3.695.654 5.521.737 1.826.083 3.642 0 5.469 0h1.1c1.11 0 2.179-.166 3.299-.218h.8c1.784 0 4.005.457 5.769.426h.197c1.64-.063 2.792-.55 4.462-.623 1.671-.073 4.027.332 5.677.27h.166c1.681-.094 2.469-.706 4.057-.841h4.4c.332 0 .654 0 .944-.063 1.536-.176 2.532-.57 3.985-.768.332-.052.726-.072 1.142-.093.923 0 1.992 0 2.905-.052.438-.011.874-.05 1.308-.114 1.369-.239 2.459-.592 3.725-.862s.975-.965 2.138-1.256c1.162-.29 4.078-.156 5.188-.478 1.111-.321 1.131-.882 2.076-1.225.944-.342 2.999-.487 3.829-.861.83-.374 0-1.038.685-1.422.684-.385 1.899-.706 2.469-1.111.571-.405.644-.893 1.038-1.319.467-.388.901-.815 1.297-1.277.311-.446-.467-.965-.29-1.422.176-.457 1.784-.8 1.826-1.266a5.569 5.569 0 00-.374-1.412 7.256 7.256 0 00-.788-1.433 6.172 6.172 0 00-.602-1.422c-.374-.467-1.339-.945-1.847-1.422-.509-.478-1.142-.935-1.785-1.412-.643-.478.332-1.038-.415-1.495-.747-.457-1.712-.945-2.594-1.402-.883-.456-3.643-.737-4.639-1.173-.996-.436-1.038-1.038-2.158-1.443-1.121-.405-1.982-.913-3.197-1.328-1.214-.416-3.351-.665-4.659-1.039-1.307-.373-1.888-.965-3.289-1.35-1.401-.383-3.85-.466-5.334-.82-1.484-.352-2.231-.954-3.788-1.276-1.556-.322-3.206-.665-4.835-.966-1.63-.3-3.114-.727-4.795-1.038-1.681-.311-4.223 0-5.966-.27-1.744-.27-3.352-.53-5.127-.737-1.774-.207-3.424-.54-5.188-.716-1.764-.177-3.611-.312-5.438-.457-1.826-.145-3.642-.187-5.479-.301-1.837-.114-3.57 0-5.406-.083a234.18 234.18 0 00-5.365-.177c-1.827-.041-3.964-.622-5.759-.622h-1.381c-1.037 0-2.075.114-3.04.155h-.799c-1.743 0-3.56 0-5.282.114l-.01-.02z" fill="#E58848"/><path d="M73.656 56.828c-6.745.27-10.19 1.982-7.7 3.83 2.49 1.848 9.993 3.115 16.739 2.886 6.745-.228 10.19-1.972 7.7-3.83-2.491-1.859-9.994-3.115-16.739-2.886z" fill="#B12600"/><path d="M72.235 58.053c-.903 0-1.37.27-1.038.519a4.566 4.566 0 002.241.383c.903 0 1.37-.259 1.038-.508a4.617 4.617 0 00-2.252-.394h.01zm6.693 2.117c-.747 0-1.131.218-.851.426a3.736 3.736 0 001.868.322c.747 0 1.141-.218.861-.426a3.787 3.787 0 00-1.878-.322z" fill="#F4BDC6"/><path d="M86.482 61.229c-.487 0-.736.135-.56.27.38.17.798.245 1.214.218.488 0 .747-.145.56-.28a2.45 2.45 0 00-1.214-.208z" fill="#E2A4AC"/><path d="M72.826 60.658c-1.038 0-1.588.311-1.204.602a5.427 5.427 0 002.626.457c1.037 0 1.587-.312 1.203-.602a5.427 5.427 0 00-2.625-.457z" fill="#F4BDC6"/><path d="M87.27 66.938c-1.12 0-1.69.322-1.276.633.87.389 1.822.553 2.771.478 1.11 0 1.681-.332 1.266-.633a5.552 5.552 0 00-2.76-.478zm19.489 5.742c-1.214 0-1.826.353-1.391.685.941.421 1.972.6 2.999.519 1.214-.052 1.827-.353 1.381-.685a5.968 5.968 0 00-2.989-.52zm14.58-1.215c-1.111 0-1.681.322-1.266.623.86.393 1.807.557 2.75.477 1.11 0 1.681-.322 1.266-.633a5.636 5.636 0 00-2.75-.467zm13.552 1.038c-1.1 0-1.671.322-1.266.633.865.389 1.816.55 2.76.467 1.1 0 1.671-.321 1.256-.622a5.594 5.594 0 00-2.75-.478zm7.492 3.115c-1.11.052-1.67.332-1.266.633.863.386 1.808.55 2.75.477 1.111 0 1.681-.332 1.266-.633a5.59 5.59 0 00-2.75-.477zM90.612 55.136c-1.11 0-1.68.321-1.266.622.86.394 1.808.558 2.75.477 1.11 0 1.681-.321 1.266-.633a5.614 5.614 0 00-2.75-.466zm44.165 13.526c-2.075.073-3.113.602-2.356 1.162.758.56 3.051.955 5.106.882 2.055-.072 3.113-.601 2.345-1.172-.768-.57-3.04-.955-5.095-.872zm10.678-1.754c-1.266 0-1.92.373-1.453.726.976.44 2.047.625 3.113.54 1.277 0 1.93-.374 1.453-.716a6.392 6.392 0 00-3.113-.55zm-33.207-5.544c-1.598.063-2.417.467-1.826.913a8.062 8.062 0 003.964.675c1.598-.062 2.418-.467 1.826-.903a8.042 8.042 0 00-3.964-.685zm12.401-1.411c-1.557.062-2.345.456-1.774.882a7.915 7.915 0 003.849.664c1.547-.062 2.346-.457 1.765-.882a7.734 7.734 0 00-3.84-.664zm-29.575 4.401c-1.795.073-2.708.53-2.075 1.038a8.904 8.904 0 004.452.768c1.795-.073 2.708-.53 2.075-1.038a8.902 8.902 0 00-4.452-.768zm-22.103.062c-1.037 0-1.484.29-1.12.56.76.346 1.596.489 2.428.415.975 0 1.484-.28 1.12-.55a4.982 4.982 0 00-2.428-.425zm-9.36.675c-.612 0-.934.187-.705.353a3.2 3.2 0 001.535.27c.623 0 .945-.187.716-.353a3.114 3.114 0 00-1.546-.27zm1.692 3.935c-.623 0-.934.176-.706.353.482.215 1.01.304 1.536.259.623 0 .934-.176.706-.353a3.187 3.187 0 00-1.536-.26zm15.669-13.299c-.623 0-.934.177-.716.353a3.114 3.114 0 001.546.26c.612 0 .934-.177.706-.343a3.112 3.112 0 00-1.536-.27zm40.688.301c-.622 0-.934.187-.705.353.481.216 1.009.31 1.536.27.622 0 .934-.187.705-.353a3.05 3.05 0 00-1.536-.27zm25.569.447c-.622 0-.944.176-.716.352a3.114 3.114 0 001.547.26c.612 0 .923-.177.695-.353a3.167 3.167 0 00-1.526-.26zm27.697 14.45c-.623 0-.934.187-.706.353.48.222 1.009.315 1.536.27.622 0 .934-.187.705-.353a3.047 3.047 0 00-1.535-.27zm-13.013 11.524c-.623 0-.944.176-.716.353a3.113 3.113 0 001.546.259c.612 0 .934-.176.706-.343a3.116 3.116 0 00-1.536-.27zm-37.959 1.318c-.623 0-.934.176-.706.353a3.2 3.2 0 001.536.26c.623 0 .934-.177.706-.354a3.188 3.188 0 00-1.536-.26zm-42.401-7.941c-.622 0-.934.176-.705.352.481.216 1.01.305 1.535.26.623 0 .934-.177.706-.353a3.186 3.186 0 00-1.536-.26zm-9.837-4.465c-1.142 0-1.723.343-1.297.654a5.8 5.8 0 002.832.488c1.142-.052 1.723-.343 1.298-.654a5.75 5.75 0 00-2.833-.488zm21.148-1.36c-1.141 0-1.723.343-1.307.654a5.81 5.81 0 002.843.488c1.141 0 1.722-.332 1.297-.644a5.656 5.656 0 00-2.833-.498zm26.098 11.451c-1.172 0-1.774.342-1.338.664a5.851 5.851 0 002.916.498c1.172 0 1.774-.342 1.338-.664a5.851 5.851 0 00-2.916-.498zm40.886-3.207c-1.245 0-1.878.363-1.411.705a6.358 6.358 0 003.113.53c1.235-.053 1.878-.364 1.411-.706a6.142 6.142 0 00-3.113-.53zm12.93-6.427c-1.422.062-2.148.425-1.63.81a7.038 7.038 0 003.529.601c1.421 0 2.148-.415 1.618-.799a7.105 7.105 0 00-3.517-.612zm8-2.502c-2.22.083-3.351.654-2.532 1.266.82.613 3.29 1.038 5.5.945 2.21-.094 3.352-.654 2.532-1.256-.82-.602-3.279-1.038-5.5-.955z" fill="#E23D1C"/><path d="M91.193 79.22a5.26 5.26 0 01-1.203 0c-.84-.104-1.225-.364-.872-.56.294-.133.612-.204.934-.209.404-.036.81-.036 1.214 0 .84.115 1.224.364.872.572-.298.129-.62.196-.945.197zm4.255-2.128a4.382 4.382 0 01-1.038 0c-.716-.094-1.037-.312-.747-.488.256-.11.531-.166.81-.166a4.382 4.382 0 011.037 0c.716.093 1.038.311.747.487a2.22 2.22 0 01-.81.167zm-4.026-1.37c-2.605.165-5.427.197-6.6.86-.353.209 0 .842-.125 1.039-.487.83.613 1.225 2.937 1.869 1.079.476 2.197.858 3.341 1.142.81.114 1.65-.229 2.48-.177 1.747.258 3.507.404 5.272.436a15.875 15.875 0 005.998-1.287c.55-.322.82-.654.841-.986 0-.166.114-.571 0-.737-.602-.873-3.01-1.464-6.393-1.921a39.88 39.88 0 00-7.751-.25v.011z" fill="#952500"/><path d="M91.681 74.829a15.197 15.197 0 00-5.998 1.12c-2.272 1.226.197 2.928 5.52 3.8 2.56.408 5.152.568 7.742.478a15.56 15.56 0 005.998-1.121c2.273-1.236-.197-2.928-5.52-3.8a39.416 39.416 0 00-7.742-.477z" fill="#B12600"/><path d="M94.587 75.618a1.92 1.92 0 00-.81.155c-.3.156 0 .395.737.509.344.05.69.071 1.038.062.274.001.545-.052.799-.156.3-.155 0-.384-.737-.508a5.935 5.935 0 00-1.038-.063h.01z" fill="#E2A4AC"/><path d="M98.945 78.607c-.23.007-.457.049-.674.125-.25.145 0 .332.622.425.285.047.573.067.861.063.232.001.462-.045.675-.135.249-.135 0-.322-.623-.415a4.056 4.056 0 00-.861-.063zm-8.789-1.131a2.43 2.43 0 00-.934.176c-.353.187 0 .457.861.592.401.065.808.09 1.214.073.32.008.639-.052.934-.177.353-.187 0-.456-.861-.591a6.869 6.869 0 00-1.214-.073z" fill="#F4BDC6"/><path d="M144.49 60.388c-.347.01-.695-.01-1.038-.062-.695-.125-1.038-.353-.726-.52a2.21 2.21 0 01.788-.145c.347-.01.695.01 1.038.063.695.124 1.038.353.726.519-.25.1-.518.15-.788.145zm-9.64-.976h-.467c-.332-.062-.478-.166-.343-.239a.966.966 0 01.363-.072c.159-.01.319-.01.478 0 .321 0 .477.166.332.239a.874.874 0 01-.363.072zm4.524-.675a4.152 4.152 0 01-.872-.052c-.602-.103-.882-.3-.622-.436.214-.086.443-.128.674-.124.293-.03.589-.03.882 0 .592.104.872.301.612.436a1.729 1.729 0 01-.674.124v.052zm-3.414-1.276a12.86 12.86 0 00-5.033.944c-.166.083-.457-.436-.56-.353a1.322 1.322 0 00-.146.623c-.114.924.27.706 1.37 1.236a12.875 12.875 0 003.964 1.754c.633.114 1.546-.197 2.2-.135 1.47.175 2.951.245 4.431.208 2.179-.083 3.964-.063 4.96-.602.53-.291 1.038-.655.976-.976-.062-.322 0-.841-.218-1.038-.695-.686-2.823-.841-5.386-1.267a32.911 32.911 0 00-6.558-.415v.02z" fill="#952500"/><path d="M136.064 56.6a12.863 12.863 0 00-5.033.944c-1.93 1.038.145 2.512 4.628 3.26 2.163.36 4.356.503 6.548.425a12.894 12.894 0 005.043-.955c1.92-1.038-.145-2.502-4.628-3.26a32.911 32.911 0 00-6.558-.415z" fill="#B12600"/><path d="M138.658 57.264a1.693 1.693 0 00-.675.124c-.259.145 0 .332.613.436.291.051.586.072.882.062a1.7 1.7 0 00.674-.135c.26-.135 0-.332-.612-.436a5.194 5.194 0 00-.882-.051zm3.02 3.082a1.047 1.047 0 00-.364.063c-.145.083 0 .187.332.239.159.02.319.02.478 0a.953.953 0 00.363-.063c.145-.083 0-.187-.332-.239a1.849 1.849 0 00-.477 0zm-7.171-2.138a.966.966 0 00-.363.073c-.145.072 0 .176.332.239h.477a.877.877 0 00.364-.073c.145-.073 0-.177-.332-.239a3.812 3.812 0 00-.478 0zm9.122.592a2.178 2.178 0 00-.789.156c-.301.156 0 .384.726.508a5.82 5.82 0 001.038.063c.267.006.532-.043.778-.146.312-.166 0-.394-.716-.508a4.984 4.984 0 00-1.037-.073z" fill="#F4BDC6"/><path d="M79.955 70.562a4.6 4.6 0 01-.643 0c-.426-.072-.633-.218-.446-.322a1.29 1.29 0 01.487-.093c.214-.02.43-.02.644 0 .425.073.633.218.446.322-.156.06-.32.093-.488.093zm-6.797-.197a4.461 4.461 0 01-.892-.062c-.602-.104-.882-.301-.623-.436.216-.096.45-.142.685-.135.299-.01.598.011.892.062.602.104.883.301.623.436-.215.096-.45.142-.685.135zm3.86-1.038a3.76 3.76 0 01-.757 0c-.53-.094-.758-.26-.54-.384.184-.077.382-.115.581-.114.257-.009.515.009.768.052.52.082.758.259.53.384a1.35 1.35 0 01-.581.103v-.041zm-2.957-1.121a11.202 11.202 0 00-4.369.83c-.197.114-.456-.56-.56-.446-.768.872 1.141 2.72 4.555 3.29 1.889.323 3.944-.352 5.729-.425 1.784-.073 3.486 0 4.347-.426a1.256 1.256 0 00.571-1.536c-.415-.664-2.075-.498-4.586-.914a28.763 28.763 0 00-5.687-.373z" fill="#952500"/><path d="M74.05 67.064a10.974 10.974 0 00-4.368.83c-1.67.914.114 2.19 3.995 2.845 1.878.312 3.783.437 5.687.373a11.203 11.203 0 004.368-.83c1.671-.914-.124-2.19-3.995-2.855a29.597 29.597 0 00-5.686-.363z" fill="#B12600"/><path d="M76.292 67.645a1.5 1.5 0 00-.581.114c-.228.125 0 .29.53.374.249.048.503.065.757.052.202.004.403-.031.591-.104.228-.125 0-.301-.53-.384a3.926 3.926 0 00-.767-.052z" fill="#E2A4AC"/><path d="M79.343 68.974c-.167 0-.333.03-.488.093-.187.104 0 .239.446.311.21.026.423.026.633 0a.966.966 0 00.488-.093c.187-.093 0-.239-.446-.311a2.628 2.628 0 00-.633 0zm-.436 1.36a.964.964 0 00-.322.062c-.124.073 0 .166.29.207.14.01.278.01.416 0a.954.954 0 00.311-.062c.125-.072 0-.156-.29-.207-.135-.01-.27-.01-.405 0zm-6.59-1.734a1.743 1.743 0 00-.684.125c-.26.145 0 .342.622.446.295.051.594.072.893.062.231.001.46-.044.674-.135.27-.135 0-.342-.623-.446a5.094 5.094 0 00-.882 0V68.6z" fill="#F4BDC6"/><path d="M165.991 65.683a3.455 3.455 0 01-.726 0c-.498-.094-.737-.27-.519-.415.179-.081.374-.124.57-.125.242-.025.485-.025.727 0 .498.094.726.27.519.415a1.256 1.256 0 01-.571.125zm-4.535-.384a4.212 4.212 0 01-1.037-.063c-.706-.124-1.038-.384-.727-.58a1.93 1.93 0 01.789-.177 4.22 4.22 0 011.038.062c.705.125 1.037.384.726.571a1.755 1.755 0 01-.789.187zm1.038-2.876a11.575 11.575 0 00-5.064 1.173c-1.619 1.038-.353 2.004 2.739 2.876a19.13 19.13 0 001.879.81 28.35 28.35 0 006.496 0c2.2-.135 4.088-.177 5.085-.81a2.02 2.02 0 00.882-.976 8.002 8.002 0 00-.052-1.038A25.468 25.468 0 00169 62.745a28.956 28.956 0 00-6.506-.395v.073z" fill="#952500"/><path d="M162.587 61.696a11.64 11.64 0 00-5.064 1.163c-1.919 1.235.156 2.886 4.629 3.685 2.146.382 4.329.514 6.506.395a11.64 11.64 0 005.064-1.163c1.92-1.235-.156-2.886-4.628-3.685a28.924 28.924 0 00-6.507-.395z" fill="#B12600"/><path d="M165.379 64.375a1.256 1.256 0 00-.571.124c-.207.135 0 .322.519.415.241.026.485.026.726 0a1.41 1.41 0 00.571-.124c.208-.146 0-.332-.519-.415a2.873 2.873 0 00-.726 0zm2.791 1.557a.827.827 0 00-.373.083c-.135.083 0 .208.342.27.155.015.312.015.467 0a.8.8 0 00.415-.01c.135-.083 0-.208-.342-.27a2.381 2.381 0 00-.467 0l-.042-.073zm-7.606-2.18a1.931 1.931 0 00-.789.176c-.301.197 0 .457.727.581.342.064.69.085 1.037.062.274 0 .544-.063.789-.186.301-.187 0-.447-.726-.571a4.227 4.227 0 00-1.038-.062z" fill="#F4BDC6"/><path d="M151.11 74.31a1.84 1.84 0 01-.477 0c-.332-.063-.477-.198-.332-.302a.891.891 0 01.363-.103c.159-.02.319-.02.477 0 .322.062.478.197.343.3a.727.727 0 01-.374.105zm1.567-.571a2.94 2.94 0 01-.726 0c-.509-.104-.737-.312-.519-.478.175-.098.371-.152.571-.156a2.89 2.89 0 01.726.052c.509.094.737.301.519.467a1.216 1.216 0 01-.571.156v-.041zm5.697-1.142a3.175 3.175 0 01-.882-.052c-.602-.114-.882-.364-.612-.56.207-.123.444-.188.685-.188.291-.023.585-.006.872.052.601.114.882.374.622.56a1.39 1.39 0 01-.685.188zm-6.413-2.077c-2.21.166-4.472 0-5.479.779-.404.301-.259 1.235-.332 1.568-.259 1.235 1.775 2.564 5.334 3.26a25.01 25.01 0 006.537.383 10.479 10.479 0 005.106-1.39c.469-.324.795-.814.913-1.371 0-.301.073-1.298-.166-1.588-.706-.872-2.843-.758-5.365-1.257a25.1 25.1 0 00-6.548-.384z" fill="#952500"/><path d="M152.044 69.39a10.469 10.469 0 00-5.105 1.4c-1.941 1.444.124 3.323 4.618 4.215 2.156.414 4.357.543 6.547.385a10.469 10.469 0 005.106-1.402c1.941-1.433-.135-3.322-4.618-4.215a25.1 25.1 0 00-6.548-.384z" fill="#B12600"/><path d="M157.606 70.666a1.43 1.43 0 00-.684.187c-.27.197-.001.446.612.57.293.036.589.036.882 0a1.42 1.42 0 00.674-.186c.27-.197 0-.447-.612-.571a3.582 3.582 0 00-.872-.052v.052zm-5.52 1.277a1.102 1.102 0 00-.571.156c-.218.155 0 .373.519.466.239.048.483.066.726.052.201-.006.398-.064.571-.166.218-.155 0-.363-.519-.467a2.873 2.873 0 00-.726 0v-.041z" fill="#E2A4AC"/><path d="M159.568 73.687a.769.769 0 00-.374.104c-.135.103 0 .238.342.311.155.02.312.02.467 0a.663.663 0 00.374-.104c.145-.104 0-.238-.332-.3a1.876 1.876 0 00-.477 0v-.011z" fill="#F4BDC6"/><path d="M150.747 72.752a.847.847 0 00-.373.094c-.135.114 0 .249.342.31.158.022.319.022.477 0a.898.898 0 00.364-.103c.145-.104 0-.239-.333-.3a1.485 1.485 0 00-.477 0z" fill="#E2A4AC"/><path d="M138.928 82.968a4.698 4.698 0 01-1.038-.063c-.726-.124-1.038-.384-.758-.57a2.08 2.08 0 01.831-.177c.347-.018.695.003 1.037.062.737.125 1.038.384.758.571a1.763 1.763 0 01-.83.177zm-6.662-.561a7.194 7.194 0 01-1.484-.083c-1.038-.187-1.505-.54-1.038-.81a2.943 2.943 0 011.162-.249 7.34 7.34 0 011.495.094c1.037.176 1.504.54 1.037.799a2.583 2.583 0 01-1.162.249h-.01zm6.506-1.962a6.05 6.05 0 01-1.287-.083c-.871-.145-1.287-.457-.903-.685a2.41 2.41 0 011.038-.218c.427-.018.855.01 1.276.083.883.156 1.287.457.914.685a2.45 2.45 0 01-1.038.218zm-4.939-2.004c-3.228.156-6.413.052-7.877.935-.643.394-.539 1.463-.591 1.9-.135 1.038 1.722 1.505 4.628 2.366 1.038.312 1.909 1.288 3.207 1.516 2.801.488 5.437 0 8.166 0 .343 0 1.443.239 1.785.228 3.227-.166 5.573-.321 7.025-1.193.654-.395 1.308-.955 1.36-1.391a3.403 3.403 0 00-.322-1.89c-1.038-1.1-4.037-1.194-7.835-1.858a44.694 44.694 0 00-9.546-.571v-.042z" fill="#952500"/><path d="M134.061 77.383c-3.217.166-5.967.706-7.43 1.588-2.812 1.703.239 3.997 6.807 5.128a44.69 44.69 0 009.547.582c3.217-.166 5.967-.706 7.43-1.589 2.802-1.692-.239-3.996-6.807-5.128a44.696 44.696 0 00-9.547-.581z" fill="#B12600"/><path d="M137.662 78.4a2.47 2.47 0 00-1.038.207c-.374.229 0 .54.913.696.422.07.85.094 1.277.072.357.01.711-.061 1.037-.207.384-.229 0-.54-.913-.696a6.62 6.62 0 00-1.276-.072zm.363 2.7c-.287-.01-.572.05-.83.176-.311.187 0 .446.757.57.343.06.691.08 1.038.063.286-.004.568-.064.83-.177.312-.186 0-.446-.768-.57a4.6 4.6 0 00-1.037-.063h.01zm4.099 2.168a1.269 1.269 0 00-.54.115c-.207.124 0 .29.488.373.231.026.464.026.695 0 .186.002.37-.037.54-.114.207-.124 0-.29-.498-.374a3.113 3.113 0 00-.685 0zm-11.155-3.061a2.734 2.734 0 00-1.163.249c-.446.26 0 .622 1.038.799a7.33 7.33 0 001.494.093 2.951 2.951 0 001.163-.249c.435-.27 0-.623-1.038-.799a6.56 6.56 0 00-1.484-.093h-.01z" fill="#F4BDC6"/><path d="M115.133 70.272a3.755 3.755 0 01-.757 0c-.519-.104-.758-.302-.54-.447a1.46 1.46 0 01.592-.135c.253-.013.508.005.757.052.519.094.758.29.529.436-.18.09-.379.136-.581.135v-.041zm-4.721-1.423a5.353 5.353 0 01-1.038-.072c-.726-.135-1.038-.405-.747-.613.255-.124.536-.188.82-.187a4.6 4.6 0 011.037.063c.727.135 1.038.415.747.612a1.79 1.79 0 01-.809.197h-.01zm4.649-1.536a3.9 3.9 0 01-.914-.062c-.622-.115-.913-.343-.643-.52.22-.107.461-.163.706-.165.305-.015.612.006.913.062.612.114.903.342.633.519a1.548 1.548 0 01-.695.166zm-3.539-1.516c-2.262.125-4.296-.124-5.334.55a1.819 1.819 0 00-.446 2.316c.602.882 2.501 1.733 5.334 2.263 2.245.401 4.529.544 6.807.425 1.8-.012 3.573-.43 5.189-1.225a1.695 1.695 0 00.847-1.147 1.683 1.683 0 00-.339-1.386c-.799-.758-2.802-.913-5.292-1.38a29.247 29.247 0 00-6.808-.416h.042z" fill="#952500"/><path d="M111.563 65.018a12.022 12.022 0 00-5.188 1.215c-2.003 1.308.135 3.052 4.784 3.914a29.04 29.04 0 006.807.425c1.8-.009 3.574-.428 5.189-1.225 2.002-1.297-.135-3.041-4.784-3.903a29.296 29.296 0 00-6.808-.426z" fill="#B12600"/><path d="M114.241 65.797a1.57 1.57 0 00-.696.156c-.269.176.001.415.634.53.301.052.607.07.913.051.244.002.485-.051.705-.156.27-.176 0-.415-.643-.529a3.884 3.884 0 00-.913-.052zm.249 3.063a1.284 1.284 0 00-.581.134c-.229.146 0 .343.529.436.251.031.506.031.757 0 .206.007.41-.039.592-.135.218-.145 0-.342-.54-.435a3.102 3.102 0 00-.757 0zm-5.012-1.682c-.285.003-.565.07-.82.197-.311.197 0 .477.747.612.343.06.691.08 1.038.062.284 0 .564-.064.82-.186.311-.208 0-.478-.748-.613a5.39 5.39 0 00-1.037-.072z" fill="#F4BDC6"/><path d="M106.437 58.52a1.04 1.04 0 01-.301 0c-.207 0-.301-.125-.207-.198a.402.402 0 01.228-.062c.1-.014.201-.014.301 0 .208 0 .29.135.207.208a.545.545 0 01-.228.062v-.01zm2.262-.634a1.033 1.033 0 01-.311 0c-.197 0-.29-.134-.207-.197a.461.461 0 01.238-.072c.097-.01.194-.01.291 0 .207 0 .301.135.207.207a.495.495 0 01-.218.063zm1.868-.685a1.74 1.74 0 01-.456 0c-.312-.072-.457-.207-.322-.311a.621.621 0 01.353-.104c.151-.02.305-.02.456 0 .322.062.457.197.332.301a.652.652 0 01-.363.104v.01zm-5.043.312c-.217.03-.437.03-.654 0-.436-.094-.633-.29-.446-.436a.975.975 0 01.498-.146c.213-.035.431-.035.643 0 .436.084.644.28.447.437a.946.946 0 01-.488.134v.01zm2.76-.737a1.638 1.638 0 01-.55 0c-.384-.073-.55-.25-.384-.374a.946.946 0 01.426-.125 2.11 2.11 0 01.55 0c.373.073.55.24.384.374a.84.84 0 01-.426.114v.01zm-2.127-1.038c-1.38.103-2.584-.187-3.217.3-1.224.956.104 2.804 2.906 3.385 1.365.278 2.762.365 4.15.26a5.958 5.958 0 003.581-1.288c1.172-1.204-.467-1.817-3.28-2.408a14.965 14.965 0 00-4.15-.25h.01z" fill="#952500"/><path d="M106.302 54.928a6.355 6.355 0 00-3.185.913c-1.215.945.072 2.19 2.874 2.772 1.365.278 2.762.365 4.151.26a6.42 6.42 0 003.175-.914c1.225-.955-.062-2.19-2.874-2.782a14.974 14.974 0 00-4.151-.25h.01z" fill="#B12600"/><path d="M107.797 55.457a.841.841 0 00-.426.114c-.166.125 0 .301.384.374.182.03.368.03.55 0a.85.85 0 00.426-.114c.166-.135 0-.301-.384-.374a1.638 1.638 0 00-.55 0zm2.355.509a.655.655 0 00-.363.104c-.135.103 0 .238.322.311.155.02.312.02.467 0a.763.763 0 00.353-.093c.134-.114 0-.25-.322-.312a1.765 1.765 0 00-.457 0v-.01zm-.508 2.128a.397.397 0 00-.229.073c-.093.062 0 .155.208.197.1.014.201.014.301 0a.424.424 0 00.228-.073c.083-.062 0-.156-.207-.197-.1-.01-.201-.01-.301 0zm-1.225-1.297a.393.393 0 00-.228.072c-.093.073 0 .156.208.197.099.015.201.015.3 0a.554.554 0 00.229-.062c.083-.072 0-.166-.208-.207-.1-.01-.201-.01-.301 0zm-2.262.643a.456.456 0 00-.228.062c-.094.073 0 .156.207.197.1.015.202.015.301 0a.516.516 0 00.229-.062c.093-.072 0-.166-.208-.207a.98.98 0 00-.301 0v.01zm-1.235-1.339a1.038 1.038 0 00-.498.145c-.187.146 0 .343.457.426.213.036.43.036.643 0 .175-.002.346-.049.498-.135.187-.156 0-.343-.446-.436a2.005 2.005 0 00-.654 0z" fill="#F4BDC6"/><path d="M92.293 48.938h.664c1.65-.104 2.76-.56 4.494-.633 2.387-.094 3.964 1.038 5.053 1.038.27 0 .561.062.831 0 1.037 0 2.075-.28 3.113-.322.456 0 .861.29 1.328.29 1.805 0 3.902.354 5.707.395 1.806.042 3.705.166 5.521.239 1.816.073 3.601.124 5.427.228 1.826.104 3.59-.104 5.396 0s3.591.187 5.396.364c1.806.176 3.601.353 5.375.56 1.775.208 3.114 1.152 4.826 1.402 1.712.249 4.721-.509 6.402-.24 1.681.27 3.01.489 4.639.79 1.629.301 3.113.924 4.711 1.246 1.598.322 2.376.913 3.871 1.266 1.494.353 3.953.592 5.365.966 1.411.373 2.002-.26 3.32.135 1.318.394 3.435.643 4.66 1.038 1.224.394 2.075.893 3.185 1.329 1.111.436 1.163.986 2.169 1.432 1.007.447 3.757.717 4.639 1.184.882.467 1.826.934 2.584 1.401.757.467-.218 1.038.425 1.495.619.44 1.214.911 1.785 1.412.639.438 1.252.913 1.837 1.422.264.446.47.924.612 1.422a7.5 7.5 0 01.789 1.423c.188.454.31.933.363 1.422 0 .457-1.65.81-1.816 1.256-.166.447.591 1.038.29 1.422-.39.467-.824.894-1.297 1.277-.446.436-.519.914-1.038 1.319-.518.404-1.774.726-2.469 1.11-.696.385.135 1.039-.685 1.433-.82.395-2.885.509-3.829.862-.945.353-1.038.892-2.076 1.214-1.037.322-3.964.187-5.136.478-1.173.29-.872 1.038-2.148 1.266-1.277.229-2.346.623-3.715.852-.433.064-.87.102-1.308.114-.923 0-1.982 0-2.905.062-.426 0-.81 0-1.142.083-1.453.208-2.449.602-3.985.769l-.944.072h-4.4c-1.588.135-2.387.737-4.057.841h-.166c-1.65.073-4.006-.322-5.687-.26-1.681.063-2.812.55-4.452.613h-.197c-1.764 0-3.995-.426-5.769-.436h-.799c-1.121 0-2.19.166-3.3.208h-1.111c-1.816 0-3.642.052-5.458 0-1.816-.052-3.705-.623-5.521-.737-1.816-.115-3.663-.084-5.479-.229-1.816-.145-3.518-.457-5.323-.633a279.215 279.215 0 01-5.324-.571c-1.774-.208-4.15 0-5.883-.187-1.733-.187-3-.83-4.69-1.1-1.692-.27-2.74-.83-4.37-1.132-1.629-.301-4.254-.187-5.821-.509-1.567-.322-2.387-.913-3.881-1.266-1.494-.353-2.791-.737-4.15-1.111-1.36-.374-2.232-.851-3.55-1.246-1.318-.394-3.725-.56-4.95-1.038-1.224-.477-2.718-.789-3.84-1.225-1.12-.436-.881-1.038-1.877-1.464-.996-.425-2.18-.85-3.062-1.308-.882-.457-2.075-.882-2.864-1.35-.788-.466-1.214-.934-1.857-1.411-.643-.478-.332-.955-.83-1.422-.498-.468-2.937-.935-3.31-1.412-.374-.478-.084-.955-.322-1.422-.239-.468.58-.914.477-1.381-.104-.467-.747-.955-.706-1.423.042-.467.53-.882.706-1.339.177-.456 0-.924.343-1.36.342-.436 1.452-.789 1.898-1.214a17.37 17.37 0 011.827-1.184c.57-.415.384-.913 1.038-1.308.653-.394 2.168-.633 2.988-1.038.82-.405.509-.955 1.453-1.298.944-.342 2.013-.664 3.113-.986 1.1-.322 2.49-.54 3.663-.83 1.173-.291 2.439-.55 3.705-.81s2.075-.685 3.383-.924c1.307-.239 3.009-.363 4.462-.571a13.74 13.74 0 011.39-.104c.84 0 1.744 0 2.584-.073.415 0 .81 0 1.173-.072 1.525-.177 2.47-.592 4.088-.727.364 0 .737-.052 1.132-.062 1.037 0 2.262 0 3.362-.083l-.063.3zm2.595-2.004a189.614 189.614 0 00-26.732 2.73c-7.45 1.36-13.407 3.115-17.703 5.274-4.296 2.16-6.703 4.527-7.18 7.101-.478 2.575 1.037 7.402 4.773 10.153 3.735 2.751 9.266 5.347 16.52 7.714a178.073 178.073 0 0024.635 5.865 287.89 287.89 0 0029.481 3.457c10.331.703 20.691.866 31.038.488a192.76 192.76 0 0026.731-2.678c7.451-1.37 13.407-3.115 17.703-5.285 4.296-2.17 9.101-4.63 9.568-7.204.467-2.575-1.536-7.34-7.16-10.05-4.151-2.003-9.267-5.346-16.52-7.713a178.108 178.108 0 00-24.636-5.865 287.672 287.672 0 00-29.47-3.457 294.557 294.557 0 00-31.048-.478v-.052z" fill="#FFAD5C" stroke="#F78E48" stroke-width=".52"/><path d="M84.52 63.99c-3.278.115-4.949.894-3.735 1.735 1.214.84 4.857 1.443 8.136 1.328 3.279-.114 4.95-.892 3.735-1.744-1.214-.851-4.856-1.432-8.135-1.318zm34.37 4.516c-3.695.187-5.583 1.1-4.213 2.025 1.369.924 5.479 1.515 9.183 1.329 3.705-.187 5.583-1.038 4.213-2.014-1.369-.976-5.479-1.526-9.183-1.34zm7.201 4.537c-2.428.125-3.673.727-2.77 1.329.902.602 3.6 1.037 6.029.882 2.428-.156 3.673-.716 2.77-1.328-.902-.613-3.6-1.038-6.029-.883zm26.379-13.257c-2.439.125-3.674.716-2.781 1.328.892.613 3.601 1.038 6.039.883 2.439-.156 3.663-.727 2.76-1.329-.902-.602-3.6-1.038-6.018-.882zm-31.681-3.696c-2.429.125-3.674.716-2.771 1.329.903.612 3.601 1.037 6.029.871 2.428-.166 3.674-.716 2.771-1.328-.903-.612-3.601-1.038-6.029-.872zm1.307 22.83c-1.868.207-2.822.715-2.075 1.14a9.72 9.72 0 004.638.395c1.868-.207 2.812-.716 2.076-1.141a9.725 9.725 0 00-4.639-.395zm-20.598.352c-3.695.187-5.583 1.1-4.213 2.025 1.37.924 5.479 1.526 9.183 1.329 3.705-.198 5.583-1.09 4.213-2.014-1.369-.924-5.479-1.527-9.183-1.34zm.809-19.88c-2.584.135-3.902.768-2.947 1.411.955.644 3.829 1.038 6.423.934 2.595-.104 3.902-.758 2.948-1.411-.955-.654-3.84-1.038-6.424-.934zm-2.646 4.412c-3.113.218-4.711 1.235-3.57 2.252 1.142 1.018 4.577 1.682 7.69 1.464 3.113-.218 4.701-1.235 3.559-2.253-1.141-1.017-4.576-1.681-7.679-1.463zm11.155 9.665c-3.632.26-5.5 1.432-4.151 2.626 1.349 1.194 5.355 1.962 8.987 1.703 3.632-.26 5.479-1.433 4.151-2.627-1.328-1.194-5.344-1.951-8.966-1.702h-.021zM86.254 57.347c-3.113.218-4.7 1.225-3.57 2.252 1.131 1.028 4.587 1.672 7.69 1.454 3.102-.218 4.7-1.225 3.57-2.253-1.132-1.028-4.587-1.671-7.69-1.453zm62.667 10.111c-5.344.415-8.084 2.16-6.133 3.914 1.951 1.754 7.876 2.823 13.22 2.419 5.345-.405 8.084-2.16 6.123-3.904-1.961-1.744-7.876-2.834-13.21-2.429zM122.957 61.5c-3.227.238-4.887 1.307-3.704 2.356 1.183 1.048 4.752 1.713 7.98 1.464 3.227-.25 4.877-1.298 3.694-2.357-1.183-1.059-4.753-1.713-7.97-1.464zm38.52 15.312c-3.227.249-4.888 1.308-3.705 2.356 1.183 1.049 4.763 1.713 7.98 1.474 3.217-.238 4.877-1.308 3.705-2.367-1.173-1.058-4.763-1.712-7.98-1.463zm-10.948 2.834c-3.227.239-4.877 1.308-3.694 2.356 1.183 1.049 4.753 1.713 7.98 1.464 3.227-.25 4.877-1.298 3.694-2.356-1.183-1.06-4.753-1.713-7.98-1.464zM73.334 65.86c-3.279.114-4.95.892-3.735 1.733 1.214.84 4.856 1.433 8.135 1.318 3.28-.114 4.95-.892 3.736-1.733-1.214-.841-4.856-1.433-8.136-1.319zm16.542 7.09c-5.282.187-7.97 1.433-6.02 2.793 1.952 1.36 7.825 2.304 13.097 2.076 5.271-.229 7.969-1.443 6.018-2.793-1.951-1.35-7.824-2.315-13.096-2.076z" fill="#E28959" opacity=".5"/><path fill-rule="evenodd" clip-rule="evenodd" d="M93.341 113.707L.114 73.987V53.693l93.227 38.702v21.313z" fill="#F5F4EE"/><path fill-rule="evenodd" clip-rule="evenodd" d="M93.29 113.707l164.475-5.502V86.944L93.29 91.937v21.77z" fill="#CCC6C0"/><path fill-rule="evenodd" clip-rule="evenodd" d="M248.582.748l4.721 16.724-79.436 37.113-16.966-4.962L248.582.748z" fill="#8E5326"/><path d="M251 85.812L93.549 91.003 6.496 54.855l151.391-5.19L251 85.811zm-93.113-36.148L251 85.812l-93.113-36.148zm.228-1.38l-158 5.388 93.154 38.722 164.465-5.43-99.619-38.66v-.02z" fill="#FFD9B0"/><path fill-rule="evenodd" clip-rule="evenodd" d="M96.278 20.805l159.464-5.99-.114-2.71-5.78-10.579-157.72 5.129-2.045-1.443-.612 1.526 6.807 14.067z" fill="#D8A37C"/><path d="M230.297 76.334l-40.47-15.707-2.698-1.36a60.882 60.882 0 00-7.181-2.875l-1.536-.488-2.988-.872-5.957-2.336-11.414-4.391-15.753-.094c-5.033-.623-10.667-1.142-16.728-1.547A299.87 299.87 0 00105.763 46c-3.767 0-7.565.073-11.29.218a190.28 190.28 0 00-26.804 2.751c-2.937.54-6.59 1.391-9.547 2.211L15.44 52.717l-5.116 5.19 4.286.904 23.753 9.27h.166c.633-1.1 2.605-4.09 4.037-4.775h.249c1.528.08 3.052.235 4.566.467l2.77.467c.384.156.944.405 1.474.654.72.368 1.475.666 2.252.893 20.515 3.052 66.413 10.246 66.828 10.319l70.273-.696 7.108-.072h.083a6.339 6.339 0 012.076-.405 2.26 2.26 0 011.193.27c.747.467 2.252 6.685 3.217 12.167l10.979-.384 11.85-10.164 2.812-.488z" fill="#8E5326" opacity=".5"/><path fill-rule="evenodd" clip-rule="evenodd" d="M91.702 5.824l2.874 17.295-75.7 36.49-4.608-.259-12.587-4.983 90.02-48.543z" fill="#D8A37C"/><path fill-rule="evenodd" clip-rule="evenodd" d="M90.02 5.211l2.875 17.296-76.883 37.622L0 53.755 90.02 5.21z" fill="#F5F4EE"/><path fill-rule="evenodd" clip-rule="evenodd" d="M96.9 19.278l160.378-5.668L250.46 0 90.083 5.211l6.818 14.067z" fill="#E6E4DA"/><path fill-rule="evenodd" clip-rule="evenodd" d="M185.905 2.575a8.225 8.225 0 01-7.918 8.305 7.904 7.904 0 01-7.33-4.893 7.898 7.898 0 01-.598-3.039l15.846-.373z" fill="#CC8B5A"/><path fill-rule="evenodd" clip-rule="evenodd" d="M185.956 3.758c.976 1.298 1.557 1.194 1.516 2.076-.085.74-.224 1.472-.416 2.19-.467 1.101-1.587 1.921-3.808 2.077a15.733 15.733 0 01-13.065-5.793l-.124-1.36 15.897.81z" fill="#E89C69"/><path fill-rule="evenodd" clip-rule="evenodd" d="M185.905 2.294c2.708 3.613 1.733 6.073-2.709 6.395a16.22 16.22 0 01-13.251-5.959l15.96-.436z" fill="#F9F7ED"/><defs><linearGradient id="paint0_linear_228_15272" x1="124.101" y1="27.984" x2="122.779" y2="98.752" gradientUnits="userSpaceOnUse"><stop stop-color="#FFD561"/><stop offset=".77" stop-color="#FFBC46"/><stop offset="1" stop-color="#FFB43D"/></linearGradient></defs></svg>