<svg xmlns="http://www.w3.org/2000/svg" viewBox="0 0 400 629.56">
    <defs>
        <style>.cls-1{fill:#ef2b51;}.cls-2{fill:#ffdf06;}.cls-3{fill:#161616;}</style>
    </defs>
    <title>icon</title>
    <g id="Слой_2" data-name="Слой 2">
        <g id="Слой_1-2" data-name="Слой 1">
            <circle class="cls-1" cx="200" cy="571.48" r="58.08" transform="translate(-203.47 120.04) rotate(-22.5)"/>
            <path class="cls-2"
                  d="M200,0C89.54,0,0,89.54,0,200,0,357.25,200,494.66,200,494.66S400,357.25,400,200C400,89.54,310.46,0,200,0Zm0,311.45A117.56,117.56,0,1,1,317.56,193.89,117.56,117.56,0,0,1,200,311.45Z"/>
            <path class="cls-3"
                  d="M201.67,267.94A62.08,62.08,0,0,1,142.52,225a7.49,7.49,0,0,1,14.25-4.65,47.23,47.23,0,0,0,89.8,0A7.49,7.49,0,0,1,260.82,225,62.09,62.09,0,0,1,201.67,267.94Z"/>
            <path class="cls-3"
                  d="M176.78,184.23a7.52,7.52,0,0,1-4.9-1.83L157.4,169.86,142.93,182.4a7.5,7.5,0,0,1-9.82-11.33l19.39-16.79a7.49,7.49,0,0,1,9.81,0l19.39,16.78a7.5,7.5,0,0,1-4.92,13.17Z"/>
            <path class="cls-3"
                  d="M226.48,184.23a7.5,7.5,0,0,1-4.91-13.17L241,154.28a7.5,7.5,0,0,1,9.82,0l19.38,16.79a7.5,7.5,0,1,1-9.82,11.33l-14.47-12.54L231.38,182.4A7.5,7.5,0,0,1,226.48,184.23Z"/>
            <path class="cls-1"
                  d="M200,0C102.38,0,21.15,70,3.58,162.46a17.43,17.43,0,0,0,17.07,20.75H68a17.45,17.45,0,0,0,17-13.87,117,117,0,0,1,6.16-20l0-.06c.58-1.42,1.2-2.82,1.83-4.21l.33-.73c.6-1.29,1.23-2.56,1.87-3.82l.51-1c.63-1.21,1.28-2.41,1.95-3.59.2-.36.41-.71.62-1.07.67-1.16,1.36-2.3,2.07-3.43.22-.36.45-.71.68-1.07.72-1.12,1.46-2.24,2.22-3.34l.67-.94c.79-1.13,1.6-2.25,2.43-3.34l.45-.58a118.34,118.34,0,0,1,12.34-13.65c.39-.37.77-.75,1.16-1.11.82-.75,1.66-1.48,2.5-2.21.51-.45,1-.9,1.55-1.35.8-.67,1.61-1.32,2.43-2l1.78-1.39c.8-.61,1.6-1.21,2.42-1.8.64-.47,1.3-.93,1.95-1.39.8-.55,1.6-1.1,2.41-1.64l2.14-1.36c.79-.5,1.58-1,2.39-1.48s1.54-.89,2.32-1.33,1.56-.89,2.36-1.32,1.7-.88,2.56-1.31,1.5-.77,2.26-1.13c1.06-.51,2.14-1,3.22-1.46.57-.26,1.14-.53,1.72-.77,1.65-.7,3.31-1.35,5-2,.62-.23,1.26-.43,1.89-.65,1.1-.39,2.2-.77,3.32-1.13.73-.23,1.46-.43,2.19-.65,1-.3,2.08-.61,3.14-.88.76-.21,1.54-.39,2.31-.58,1-.25,2.08-.49,3.13-.72.78-.17,1.57-.32,2.37-.47,1.05-.21,2.1-.4,3.17-.57l2.4-.37c1.08-.15,2.16-.29,3.25-.41l2.4-.26c1.12-.1,2.25-.18,3.38-.26l2.33-.14c1.21,0,2.42-.07,3.64-.09.58,0,1.15,0,1.73,0h.42c1.42,0,2.84.05,4.26.1.51,0,1,0,1.52,0h.22c1.07,0,2.13.16,3.18.25A117.4,117.4,0,0,1,294,123.26c14.47,18.26,22.34,43.32,23.3,62.26,0,.15,0,.3,0,.45.18,2.62.3,5.26.3,7.92a123.39,123.39,0,0,1-4.5,32.2A106.59,106.59,0,0,1,299,257.31a118.17,118.17,0,0,1-41.42,39.09c-13,9.35-28.46,19.32-46.91,30.72-20.53,12.7-68.47,29.2-68.47,73.54v47.19C171.05,473.24,200,494.66,200,494.66S400,357.25,400,200C400,89.54,310.46,0,200,0Z"/>
        </g>
    </g>
</svg>