<svg xmlns="http://www.w3.org/2000/svg" viewBox="0 0 550 307.28"><defs><style>.cls-1{fill:#ef2b51;}.cls-2{fill:#ffdf06;}.cls-3{fill:#161616;}</style></defs><title>logo</title><g id="Слой_2" data-name="Слой 2"><g id="Слой_1-2" data-name="Слой 1"><circle class="cls-1" cx="459.19" cy="259.49" r="26.37"/><path class="cls-2" d="M459.19,0a90.82,90.82,0,0,0-90.82,90.81c0,71.41,90.82,133.8,90.82,133.8S550,162.22,550,90.81A90.81,90.81,0,0,0,459.19,0Zm0,141.42A53.38,53.38,0,1,1,512.57,88,53.38,53.38,0,0,1,459.19,141.42Z"/><path class="cls-3" d="M459.94,121.66a28.17,28.17,0,0,1-26.85-19.49,3.4,3.4,0,0,1,6.47-2.11,21.44,21.44,0,0,0,40.77,0,3.4,3.4,0,0,1,6.47,2.11A28.18,28.18,0,0,1,459.94,121.66Z"/><path class="cls-3" d="M448.65,83.65a3.38,3.38,0,0,1-2.23-.83l-6.57-5.69-6.58,5.69a3.4,3.4,0,1,1-4.45-5.14l8.8-7.63a3.41,3.41,0,0,1,4.45,0l8.81,7.62a3.41,3.41,0,0,1-2.23,6Z"/><path class="cls-3" d="M471.21,83.65a3.41,3.41,0,0,1-2.23-6l8.8-7.62a3.43,3.43,0,0,1,4.46,0l8.8,7.63a3.4,3.4,0,0,1-4.46,5.14L480,77.13l-6.57,5.69A3.4,3.4,0,0,1,471.21,83.65Z"/><path class="cls-1" d="M459.19,0A90.81,90.81,0,0,0,370,73.77a7.91,7.91,0,0,0,7.75,9.42h21.52a7.92,7.92,0,0,0,7.71-6.3,53.18,53.18,0,0,1,2.8-9.06v0c.27-.65.55-1.28.84-1.92.05-.11.09-.22.15-.33.27-.58.55-1.16.85-1.73l.22-.45c.29-.55.59-1.09.89-1.63l.28-.48c.31-.53.62-1,.94-1.56l.31-.48c.33-.51.66-1,1-1.52l.3-.43c.36-.51.73-1,1.11-1.52.06-.09.14-.17.2-.26a54.9,54.9,0,0,1,5.6-6.2l.53-.5,1.13-1,.71-.6c.36-.31.73-.61,1.1-.9l.81-.64c.36-.27.73-.55,1.1-.81s.59-.43.89-.64.72-.5,1.09-.74l1-.62,1.09-.67c.34-.21.7-.41,1-.61L434,41l1.16-.6c.35-.17.68-.35,1-.51s1-.45,1.46-.66l.78-.36c.75-.31,1.51-.61,2.27-.89l.86-.3,1.51-.5c.32-.11.66-.2,1-.3s1-.28,1.42-.4.7-.18,1.05-.26l1.42-.33,1.08-.22,1.44-.25,1.09-.17,1.47-.19,1.1-.12,1.53-.11,1.06-.07,1.65,0,.79,0h.19c.64,0,1.29,0,1.93,0,.23,0,.46,0,.69,0h.1c.49,0,1,.07,1.45.11a53.35,53.35,0,0,1,48.88,49.39,1.34,1.34,0,0,1,0,.2c.08,1.19.14,2.39.14,3.6a56,56,0,0,1-2.05,14.62,48.37,48.37,0,0,1-6.4,14.18,53.57,53.57,0,0,1-18.81,17.74c-5.89,4.25-12.92,8.78-21.3,13.95-9.32,5.77-31.09,13.26-31.09,33.39v21.43c13.12,11.53,26.27,21.26,26.27,21.26S550,162.22,550,90.81A90.81,90.81,0,0,0,459.19,0Z"/><path class="cls-3" d="M169.17,186.66c0,1.76-1,2.63-3.11,2.63H154.75q-5.73,0-9.15-5.62L138,171.29a15.75,15.75,0,0,0-14.24-8v22.31a3.52,3.52,0,0,1-1,2.64,3.61,3.61,0,0,1-2.6,1h-13.4a3.48,3.48,0,0,1-3.65-3.65v-58.2a3.58,3.58,0,0,1,1.05-2.66,3.5,3.5,0,0,1,2.6-1h13.4a3.5,3.5,0,0,1,2.63,1,3.63,3.63,0,0,1,1,2.66v22.25q10.41,0,14.24-8.07l5.74-12.21a9.9,9.9,0,0,1,3.53-4.13,8.92,8.92,0,0,1,5-1.55h11.31c2,0,3,.78,3,2.33a8.28,8.28,0,0,1-1,3.35l-7.71,16.27a21.51,21.51,0,0,1-5.39,7,16.37,16.37,0,0,1-7.36,3.77q7.37,2.22,12.75,10.77l10.16,16.45A6.82,6.82,0,0,1,169.17,186.66Z"/><path class="cls-3" d="M190.53,195.51l7.83,1q8.44,0,11.79-12.38-10.17,0-17-6.13t-11.73-21.81l-8.91-28.89a3.15,3.15,0,0,1-.18-1.11,2.57,2.57,0,0,1,.75-1.52,2.92,2.92,0,0,1,2.24-1h12.51a5.53,5.53,0,0,1,3.32,1.17,5.29,5.29,0,0,1,2.06,2.9l7.84,25.36q2.92,9.33,5.95,12.92a9.05,9.05,0,0,0,7.15,3.59l11.9-41.87a5.59,5.59,0,0,1,1.89-2.9,4.77,4.77,0,0,1,3.14-1.17h12.62a2.59,2.59,0,0,1,2.21,1,2.86,2.86,0,0,1,.72,1.58,3.89,3.89,0,0,1-.12,1l-15.67,55.87q-4.2,14.84-10.38,21.18t-15.94,6.34a89.93,89.93,0,0,1-13.79-.72c-2.7-.48-4.38-1.07-5.06-1.76a3.37,3.37,0,0,1-1-2.43v-6.58a3.66,3.66,0,0,1,1-2.66,3.51,3.51,0,0,1,2.63-1.05Z"/><path class="cls-3" d="M245.44,185.64v-7.11a3.58,3.58,0,0,1,3.71-3.71h4.67l8.19-33q4.55-18.14,30-18.13H319.2a3.59,3.59,0,0,1,3.71,3.71v58.2a3.54,3.54,0,0,1-1.05,2.61,3.61,3.61,0,0,1-2.66,1h-70a3.63,3.63,0,0,1-2.66-1A3.54,3.54,0,0,1,245.44,185.64Zm27.94-10.82h28.83V138.21H291.38q-8.67,0-11,8.79Z"/><path class="cls-3" d="M341.84,185q-7.92-5.51-7.92-15.56T341.84,154q7.94-5.38,20.43-5.39h19.8q0-7-2.93-9.75t-10.26-2.75q-7.32,0-10.29,3.62a9,9,0,0,1-7.26,3.62h-8.92a3.61,3.61,0,0,1-2.66-1,3.5,3.5,0,0,1-1.05-2.6q0-17.16,32.61-17.17,14.24,0,22.85,6.37t8.61,19.71v37a3.48,3.48,0,0,1-3.65,3.65H387.58a3.55,3.55,0,0,1-2.64-1,3.63,3.63,0,0,1-1-2.61v-1.85a36.34,36.34,0,0,1-21.81,6.73Q349.78,190.49,341.84,185Zm15.26-20.76a6.53,6.53,0,0,0-2.42,5.26,6.62,6.62,0,0,0,2.51,5.33q2.51,2.09,7.12,2.09a32.86,32.86,0,0,0,17.76-5.38v-9.34H363.71A9.93,9.93,0,0,0,357.1,164.23Z"/><path class="cls-1" d="M0,282.21V224a3.58,3.58,0,0,1,1.05-2.66,3.5,3.5,0,0,1,2.6-1H64a3.51,3.51,0,0,1,2.63,1,3.63,3.63,0,0,1,1,2.66v58.2A3.48,3.48,0,0,1,64,285.86H50.61a3.61,3.61,0,0,1-2.66-1,3.54,3.54,0,0,1-1.05-2.61V234.78H20.7v47.43a3.52,3.52,0,0,1-1.05,2.64,3.61,3.61,0,0,1-2.6,1H3.65a3.57,3.57,0,0,1-2.63-1A3.57,3.57,0,0,1,0,282.21Z"/><path class="cls-1" d="M82.31,282.21V224a3.58,3.58,0,0,1,1-2.66,3.52,3.52,0,0,1,2.6-1h12.5a3.58,3.58,0,0,1,3.71,3.71v39.3l21.06-38.7a7.85,7.85,0,0,1,2.93-3.08A7.25,7.25,0,0,1,130,220.3h16.75a3.59,3.59,0,0,1,3.71,3.71v58.2a3.52,3.52,0,0,1-1,2.64,3.68,3.68,0,0,1-2.66,1h-12.5a3.51,3.51,0,0,1-2.63-1,3.6,3.6,0,0,1-1-2.61V243l-21.06,38.59a8.66,8.66,0,0,1-2.93,3,7.08,7.08,0,0,1-3.83,1.28H86a3.48,3.48,0,0,1-3.65-3.65Z"/><path class="cls-1" d="M165.1,282.21V224a3.58,3.58,0,0,1,1.05-2.66,3.54,3.54,0,0,1,2.6-1h13.4a3.52,3.52,0,0,1,2.64,1,3.67,3.67,0,0,1,1,2.66v47.38h25.49V224a3.57,3.57,0,0,1,3.64-3.71h13.4a3.52,3.52,0,0,1,2.64,1,3.67,3.67,0,0,1,1,2.66v47.38h5.87a3.56,3.56,0,0,1,3.7,3.7v7.12a3.51,3.51,0,0,1-1,2.64,3.7,3.7,0,0,1-2.66,1h-69.1a3.48,3.48,0,0,1-3.65-3.65Z"/><path class="cls-1" d="M250.11,282.21V224a3.58,3.58,0,0,1,1-2.66,3.5,3.5,0,0,1,2.6-1h13.4a3.51,3.51,0,0,1,2.63,1,3.63,3.63,0,0,1,1,2.66v47.38h25.48V224a3.58,3.58,0,0,1,1-2.66,3.52,3.52,0,0,1,2.6-1h13.4a3.5,3.5,0,0,1,2.63,1,3.63,3.63,0,0,1,1,2.66v47.38h5.86a3.58,3.58,0,0,1,3.71,3.7v7.12a3.52,3.52,0,0,1-1.05,2.64,3.68,3.68,0,0,1-2.66,1H253.76a3.48,3.48,0,0,1-3.65-3.65Z"/><path class="cls-1" d="M346.66,292.08l7.84,1q8.43,0,11.78-12.38-10.17,0-17-6.13t-11.72-21.81l-8.92-28.89a3.15,3.15,0,0,1-.18-1.11,2.57,2.57,0,0,1,.75-1.52,2.92,2.92,0,0,1,2.24-1H344a5.53,5.53,0,0,1,3.32,1.17,5.29,5.29,0,0,1,2.06,2.9l7.84,25.36q2.93,9.33,5.95,12.92a9.1,9.1,0,0,0,7.15,3.59l11.9-41.87a5.59,5.59,0,0,1,1.89-2.9,4.77,4.77,0,0,1,3.14-1.17h12.62a2.58,2.58,0,0,1,2.21,1,2.86,2.86,0,0,1,.72,1.58,3.89,3.89,0,0,1-.12,1L387,279.76q-4.19,14.83-10.38,21.18t-15.94,6.34a89.93,89.93,0,0,1-13.79-.72q-4-.72-5.06-1.76a3.41,3.41,0,0,1-1-2.43v-6.58a3.7,3.7,0,0,1,1-2.66,3.52,3.52,0,0,1,2.64-1.05Z"/></g></g></svg>